<svg xmlns="http://www.w3.org/2000/svg" viewBox="0 0 292.885 127.579"><defs><style>.cls-1{fill:#1a1a1a;}.cls-2{fill:#00e5ff;}.cls-3{fill:#4a90e2;}</style></defs><g id="Capa_2" data-name="Capa 2"><g id="Capa_1-2" data-name="Capa 1"><path class="cls-1" d="M170.093,36.243h28.728V41.7a31.809,31.809,0,0,1,8.728-4.909,28.252,28.252,0,0,1,10-1.818,27.613,27.613,0,0,1,12.273,2.515,18.376,18.376,0,0,1,8.029,7.666,29.235,29.235,0,0,1,4.516-4.09,33.374,33.374,0,0,1,5.363-3.212,30.347,30.347,0,0,1,5.971-2.121,27.014,27.014,0,0,1,6.394-.758q11.514,0,17.7,6.363t6.181,18.607V82.427h8.91V99.033H264.218v-36q0-5.332-2.758-8.364a9.847,9.847,0,0,0-7.668-3.03,13.354,13.354,0,0,0-6.393,1.606,19.228,19.228,0,0,0-5.971,5.545q.06.668.061,1.364V82.427h9.092V99.033H221.913V62.911a12.86,12.86,0,0,0-.787-4.606,10.4,10.4,0,0,0-2.182-3.516,9.958,9.958,0,0,0-3.3-2.272,11.341,11.341,0,0,0-4.211-.879,15.068,15.068,0,0,0-6.273,1.333,16.491,16.491,0,0,0-6.213,5.152v24.3H209V99.033H169.971V82.427h9.334V52.85h-9.212Z"/><path class="cls-2" d="M155.774,0,194.63,13.5,158.321,82.427,132.2,72.489Z"/><path class="cls-1" d="M130.783,62.911q0-5.273-2.788-8.273a9.615,9.615,0,0,0-7.394-3,15.9,15.9,0,0,0-6.364,1.394A16.833,16.833,0,0,0,108,58.244V82.427h10.182V99.033H79.145V82.427h9.212V52.85H79.266V36.243h28.607v5.516a32.017,32.017,0,0,1,8.818-4.879,29.621,29.621,0,0,1,10.274-1.788q11.333,0,17.455,6.334t6.121,18.515V82.427h8.91V99.033H130.783Z"/><path class="cls-3" d="M59.888,3.682l41.121-1.126L91.448,79.87l-27.942-.049Z"/><path class="cls-1" d="M3.515,36.243H30.909v.909a37.589,37.589,0,0,1,5.941-2.03,25.629,25.629,0,0,1,6.242-.758A31.611,31.611,0,0,1,55.94,36.971,32.154,32.154,0,0,1,73.062,54.547a33.276,33.276,0,0,1,2.455,12.727,34.179,34.179,0,0,1-2.394,12.788,31.9,31.9,0,0,1-6.7,10.456,31.42,31.42,0,0,1-10.273,7.03,32.607,32.607,0,0,1-13.061,2.576,34.779,34.779,0,0,1-7.455-.758,36.1,36.1,0,0,1-6.667-2.151v13.758h12v16.606H0V110.973H10.3V52.85H3.515Zm38.244,14.85a13.66,13.66,0,0,0-7.153,2,17.067,17.067,0,0,0-5.636,5.636v17.7a15.019,15.019,0,0,0,5.273,5.03A14.658,14.658,0,0,0,41.759,83.4a14.931,14.931,0,0,0,5.879-1.181,14.469,14.469,0,0,0,4.848-3.334,16.228,16.228,0,0,0,3.273-5.091A16.627,16.627,0,0,0,56.971,67.4a18.733,18.733,0,0,0-1.182-6.849,14.9,14.9,0,0,0-3.242-5.121A14.144,14.144,0,0,0,47.7,52.214,15.779,15.779,0,0,0,41.759,51.093Z"/></g></g></svg>