<svg xmlns="http://www.w3.org/2000/svg" viewBox="0 0 593.317 132.051"><defs><style>.cls-1{fill:#4a90e2;}.cls-2{fill:#00e5ff;}.cls-3{fill:#1a1a1a;}</style></defs><g id="Capa_2" data-name="Capa 2"><g id="Capa_1-2" data-name="Capa 1"><path class="cls-1" d="M254.443,8.033l37.647-.164L281.715,78.407l-25.567-.633Z"/><path class="cls-2" d="M367.648,0,403.21,12.358l-33.23,63.08-23.9-9.095Z"/></g><g id="Modo_de_aislamiento" data-name="Modo de aislamiento"><path class="cls-3" d="M3.49,41.384H30.684v.9a37.225,37.225,0,0,1,5.9-2.015,25.454,25.454,0,0,1,6.2-.752,31.4,31.4,0,0,1,12.755,2.587,31.919,31.919,0,0,1,17,17.447,33.037,33.037,0,0,1,2.437,12.635,33.946,33.946,0,0,1-2.377,12.695A31.651,31.651,0,0,1,65.939,95.26a31.171,31.171,0,0,1-10.2,6.98A32.394,32.394,0,0,1,42.776,104.8a34.549,34.549,0,0,1-7.4-.752,35.848,35.848,0,0,1-6.618-2.136v13.657H40.67v16.485H0V115.566H10.228v-57.7H3.49Zm37.963,14.74a13.556,13.556,0,0,0-7.1,1.986,16.928,16.928,0,0,0-5.6,5.595V81.273a14.9,14.9,0,0,0,5.235,4.993,14.54,14.54,0,0,0,7.46,1.925,14.786,14.786,0,0,0,5.836-1.173A14.344,14.344,0,0,0,52.1,83.71a16.114,16.114,0,0,0,3.249-5.055,16.5,16.5,0,0,0,1.2-6.347,18.6,18.6,0,0,0-1.173-6.8,14.813,14.813,0,0,0-3.219-5.083,14.048,14.048,0,0,0-4.813-3.189A15.658,15.658,0,0,0,41.453,56.124Z"/><path class="cls-3" d="M78.285,41.384h27.977V87.229h8.663v16.485H78.285V87.229h9.386V57.869H78.285Zm8.423-20.095a10.785,10.785,0,0,1,.813-4.181,10.381,10.381,0,0,1,2.256-3.4,10.79,10.79,0,0,1,3.4-2.286,10.613,10.613,0,0,1,4.242-.843,10.109,10.109,0,0,1,4.091.843,10.74,10.74,0,0,1,5.655,5.685,10.8,10.8,0,0,1,0,8.363,10.74,10.74,0,0,1-5.655,5.685A10.092,10.092,0,0,1,97.418,32a10.6,10.6,0,0,1-4.242-.843,10.773,10.773,0,0,1-3.4-2.286,10.37,10.37,0,0,1-2.256-3.4A10.779,10.779,0,0,1,86.708,21.289Z"/><path class="cls-3" d="M164.254,62.923a18.076,18.076,0,0,0-5.776-4.9,14.356,14.356,0,0,0-7.52-1.413,13.723,13.723,0,0,0-6.348.962,14.6,14.6,0,0,0-4.933,3.369,15.205,15.205,0,0,0-3.218,5.144,18.586,18.586,0,0,0-1.144,6.708,16.382,16.382,0,0,0,1.2,6.258,15.734,15.734,0,0,0,3.278,5.084,14.8,14.8,0,0,0,4.934,3.338,19.474,19.474,0,0,0,6.227,1.445A17.72,17.72,0,0,0,156.1,87.74a15.751,15.751,0,0,0,4.121-2.406,16.634,16.634,0,0,0,3.1-3.309,20.678,20.678,0,0,0,2.016-3.46l16.545,4.572a28.652,28.652,0,0,1-3.52,7.521,29.685,29.685,0,0,1-6.5,7.13,34.477,34.477,0,0,1-22.051,7.43,32.664,32.664,0,0,1-13.175-2.618,31.667,31.667,0,0,1-10.348-7.129,32.677,32.677,0,0,1-6.769-10.588,34.759,34.759,0,0,1-2.437-13.056,32.721,32.721,0,0,1,2.5-12.845,32.343,32.343,0,0,1,6.888-10.348,31.056,31.056,0,0,1,10.439-6.889,31.589,31.589,0,0,1,13.145-2.226,29.8,29.8,0,0,1,9.807,1.143,34.09,34.09,0,0,1,9.025,4.151h11.972v18.11Z"/><path class="cls-3" d="M186.19,10.1h28.1V64.066h10.529l4.331-6.2V41.384h32.248V57.869H250.2L238.592,71.285,250.444,85.6h10.348v18.11h-16.9L223.672,77h-9.386V87.229h6.378v16.485H186.19V87.229h9.626V26.584H186.19Z"/><path class="cls-3" d="M330.767,67.856q0-5.235-2.767-8.212a9.546,9.546,0,0,0-7.34-2.978,15.762,15.762,0,0,0-6.317,1.384,16.711,16.711,0,0,0-6.2,5.173V87.229h10.107v16.485H279.508V87.229h9.145V57.869h-9.025V41.384h28.4v5.475a31.781,31.781,0,0,1,8.754-4.843,29.4,29.4,0,0,1,10.2-1.775q11.249,0,17.327,6.287t6.076,18.38V87.229h8.845v16.485H330.767Z"/><path class="cls-3" d="M364.651,10.1h27.194V42.768a34.144,34.144,0,0,1,6.678-2.406,29.38,29.38,0,0,1,7.039-.843,31.522,31.522,0,0,1,22.983,9.626,33.255,33.255,0,0,1,9.145,23.043,33.946,33.946,0,0,1-2.377,12.695,31.651,31.651,0,0,1-6.648,10.377,31.254,31.254,0,0,1-10.167,6.98,32.183,32.183,0,0,1-12.936,2.557,34.989,34.989,0,0,1-7.219-.722,34.09,34.09,0,0,1-6.5-2.046v1.685h-18.47V26.584h-8.724ZM404.3,56.124a14.111,14.111,0,0,0-7.129,1.8,15.42,15.42,0,0,0-5.325,5.174V81.754a14.436,14.436,0,0,0,5.144,4.663,14.64,14.64,0,0,0,7.19,1.774,15.491,15.491,0,0,0,5.835-1.112,14.347,14.347,0,0,0,4.844-3.19,15.108,15.108,0,0,0,3.278-4.993,17.125,17.125,0,0,0,1.2-6.588,17.99,17.99,0,0,0-1.2-6.738,15.524,15.524,0,0,0-3.248-5.114,13.911,13.911,0,0,0-4.783-3.219A15.273,15.273,0,0,0,404.3,56.124Z"/><path class="cls-3" d="M480.845,100.344q-2.108,1.325-3.851,2.256a21.162,21.162,0,0,1-7.1,2.347,28.517,28.517,0,0,1-4.091.271,30.427,30.427,0,0,1-10.017-1.535,22.044,22.044,0,0,1-7.461-4.211,18.243,18.243,0,0,1-4.663-6.317,20.129,20.129,0,0,1,.031-15.914,17.469,17.469,0,0,1,4.782-6.287,22.79,22.79,0,0,1,7.671-4.091,33.62,33.62,0,0,1,10.379-1.474,61.54,61.54,0,0,1,7.791.452q3.519.45,6.528,1.113V65.029a8.6,8.6,0,0,0-.9-4.061,7.769,7.769,0,0,0-2.527-2.828,11.175,11.175,0,0,0-3.91-1.625A22.944,22.944,0,0,0,468.511,56a39.952,39.952,0,0,0-9.957,1.113,37.856,37.856,0,0,0-8.272,3.219l-5.776-11.672a51.1,51.1,0,0,1,12.845-6.438A44.91,44.91,0,0,1,471.579,40a42.759,42.759,0,0,1,10.8,1.294,21.913,21.913,0,0,1,8.513,4.211,19.732,19.732,0,0,1,5.565,7.611,28.928,28.928,0,0,1,2.016,11.431V87.229h8.362v16.485h-25.99Zm-13.718-9.325a20.884,20.884,0,0,0,7.762-1.384,22.853,22.853,0,0,0,5.956-3.369V78.324H466.406a8.9,8.9,0,0,0-2.708.422,8.032,8.032,0,0,0-2.376,1.2,5.984,5.984,0,0,0-1.685,1.925,5.386,5.386,0,0,0-.632,2.647,6.053,6.053,0,0,0,2.016,4.633Q463.035,91.02,467.127,91.019Z"/><path class="cls-3" d="M564.859,67.856q0-5.235-2.767-8.212a9.543,9.543,0,0,0-7.34-2.978,15.765,15.765,0,0,0-6.317,1.384,16.719,16.719,0,0,0-6.2,5.173V87.229h10.108v16.485H513.6V87.229h9.145V57.869h-9.024V41.384h28.4v5.475a31.781,31.781,0,0,1,8.754-4.843,29.4,29.4,0,0,1,10.2-1.775q11.25,0,17.328,6.287t6.076,18.38V87.229h8.844v16.485H564.859Z"/></g></g></svg>