<svg xmlns="http://www.w3.org/2000/svg" viewBox="0 0 619.263 136.314"><defs><style>.cls-1{fill:#4a90e2;}.cls-2{fill:#1a1a1a;}.cls-3{fill:#00e5ff;}</style></defs><g id="Capa_2" data-name="Capa 2"><g id="Capa_1-2" data-name="Capa 1"><path class="cls-1" d="M243.207.164,280.855,0,270.479,70.538l-25.566-.633Z"/><path class="cls-2" d="M3.515,44.978h27.4v.909a37.578,37.578,0,0,1,5.94-2.03,25.635,25.635,0,0,1,6.242-.758,31.619,31.619,0,0,1,12.849,2.607A32.148,32.148,0,0,1,73.062,63.282a33.276,33.276,0,0,1,2.455,12.727A34.2,34.2,0,0,1,73.124,88.8a31.889,31.889,0,0,1-6.7,10.455,31.407,31.407,0,0,1-10.273,7.031,32.607,32.607,0,0,1-13.061,2.576,34.779,34.779,0,0,1-7.455-.758,36.2,36.2,0,0,1-6.667-2.151v13.758h12v16.606H0V119.708H10.3V61.585H3.515Zm38.244,14.85a13.656,13.656,0,0,0-7.152,2,17.067,17.067,0,0,0-5.637,5.635v17.7a15.019,15.019,0,0,0,5.273,5.03,14.658,14.658,0,0,0,7.516,1.939,14.928,14.928,0,0,0,5.879-1.181,14.459,14.459,0,0,0,4.848-3.334,16.228,16.228,0,0,0,3.273-5.091,16.61,16.61,0,0,0,1.212-6.4,18.752,18.752,0,0,0-1.181-6.848,14.921,14.921,0,0,0-3.243-5.121A14.144,14.144,0,0,0,47.7,60.949,15.779,15.779,0,0,0,41.759,59.828Z"/><path class="cls-2" d="M74.093,44.978h28.183V91.162H111v16.606H74.093V91.162h9.455V61.585H74.093Zm8.486-20.243a10.88,10.88,0,0,1,.817-4.212A10.5,10.5,0,0,1,85.669,17.1a10.885,10.885,0,0,1,3.425-2.3,10.69,10.69,0,0,1,4.273-.848,10.184,10.184,0,0,1,4.121.848,10.819,10.819,0,0,1,5.7,5.728,10.875,10.875,0,0,1,0,8.425,10.821,10.821,0,0,1-5.7,5.727,10.168,10.168,0,0,1-4.121.848,10.673,10.673,0,0,1-4.273-.848,10.868,10.868,0,0,1-3.425-2.3A10.486,10.486,0,0,1,83.4,28.948,10.878,10.878,0,0,1,82.579,24.735Z"/><path class="cls-2" d="M158.52,66.676a18.2,18.2,0,0,0-5.818-4.939,14.46,14.46,0,0,0-7.577-1.425,13.824,13.824,0,0,0-6.394.97,14.69,14.69,0,0,0-4.969,3.394,15.32,15.32,0,0,0-3.243,5.182,18.735,18.735,0,0,0-1.151,6.758,16.5,16.5,0,0,0,1.212,6.3,15.859,15.859,0,0,0,3.3,5.122,14.911,14.911,0,0,0,4.97,3.363,19.635,19.635,0,0,0,6.272,1.455,17.835,17.835,0,0,0,5.183-1.183,15.865,15.865,0,0,0,4.151-2.424,16.772,16.772,0,0,0,3.122-3.333,20.833,20.833,0,0,0,2.03-3.485l16.667,4.607a28.837,28.837,0,0,1-3.546,7.575,29.839,29.839,0,0,1-6.545,7.182,34.729,34.729,0,0,1-22.213,7.486,32.905,32.905,0,0,1-13.273-2.637,31.91,31.91,0,0,1-10.425-7.183A32.894,32.894,0,0,1,113.458,88.8,35,35,0,0,1,111,75.646a32.96,32.96,0,0,1,2.516-12.939,32.568,32.568,0,0,1,6.939-10.425,31.306,31.306,0,0,1,10.516-6.94A31.833,31.833,0,0,1,144.217,43.1a30.022,30.022,0,0,1,9.879,1.152,34.338,34.338,0,0,1,9.091,4.182h12.061V66.676Z"/><path class="cls-2" d="M176.278,13.462h28.305V67.828h10.606l4.364-6.243V44.978h32.485V61.585H240.765L229.068,75.1l11.94,14.425h10.425v18.243H234.4l-20.364-26.91h-9.454v10.3h6.424v16.606H176.278V91.162h9.7V30.069h-9.7Z"/><path class="cls-3" d="M348.2,0l35.562,12.358L350.53,75.438l-23.9-9.095Z"/><path class="cls-2" d="M315.1,71.646q0-5.274-2.788-8.273a9.615,9.615,0,0,0-7.394-3,15.882,15.882,0,0,0-6.364,1.394,16.833,16.833,0,0,0-6.242,5.212V91.162h10.181v16.606H263.463V91.162h9.213V61.585h-9.092V44.978h28.608v5.516a32.017,32.017,0,0,1,8.818-4.879,29.61,29.61,0,0,1,10.272-1.788q11.334,0,17.456,6.334t6.122,18.515V91.162h8.909v16.606H315.1Z"/><path class="cls-2" d="M355.315,44.942h28.729V50.4a31.8,31.8,0,0,1,8.727-4.909,28.25,28.25,0,0,1,10-1.818,27.593,27.593,0,0,1,12.273,2.516,18.369,18.369,0,0,1,8.031,7.666,29.183,29.183,0,0,1,4.515-4.091,33.3,33.3,0,0,1,5.364-3.212,30.435,30.435,0,0,1,5.969-2.121,27.022,27.022,0,0,1,6.395-.758q11.516,0,17.7,6.363T469.2,68.641V91.126h8.909v16.606H449.439v-36q0-5.332-2.758-8.364a9.845,9.845,0,0,0-7.667-3.03,13.354,13.354,0,0,0-6.393,1.606,19.227,19.227,0,0,0-5.97,5.545c.039.446.06.9.06,1.364V91.126H435.8v16.606H407.135V71.61A12.816,12.816,0,0,0,406.347,67a10.382,10.382,0,0,0-2.181-3.516,9.994,9.994,0,0,0-3.3-2.272,11.359,11.359,0,0,0-4.212-.879,15.068,15.068,0,0,0-6.273,1.333,16.483,16.483,0,0,0-6.212,5.152v24.3h10.06v16.606H355.194V91.126h9.334V61.549h-9.213Z"/><path class="cls-2" d="M519.926,104.338q-2.123,1.334-3.879,2.273a21.918,21.918,0,0,1-3.515,1.515,21.675,21.675,0,0,1-3.637.849,28.907,28.907,0,0,1-4.121.273,30.692,30.692,0,0,1-10.091-1.546,22.227,22.227,0,0,1-7.515-4.242,18.374,18.374,0,0,1-4.7-6.364,20.291,20.291,0,0,1,.031-16.032,17.591,17.591,0,0,1,4.818-6.333,22.938,22.938,0,0,1,7.727-4.121A33.845,33.845,0,0,1,505.5,69.125a61.841,61.841,0,0,1,7.848.455q3.544.454,6.576,1.121V68.762a8.657,8.657,0,0,0-.909-4.091,7.832,7.832,0,0,0-2.546-2.849,11.239,11.239,0,0,0-3.939-1.636,23.073,23.073,0,0,0-5.03-.516,40.216,40.216,0,0,0-10.031,1.122,38.146,38.146,0,0,0-8.334,3.242l-5.818-11.758a51.43,51.43,0,0,1,12.939-6.485,45.25,45.25,0,0,1,14.334-2.242,43.042,43.042,0,0,1,10.879,1.3,22.061,22.061,0,0,1,8.576,4.242,19.882,19.882,0,0,1,5.607,7.667,29.163,29.163,0,0,1,2.03,11.515v22.85h8.425v16.606H519.926Zm-13.818-9.394a21.027,21.027,0,0,0,7.818-1.394,23.063,23.063,0,0,0,6-3.394v-8H505.38a8.968,8.968,0,0,0-2.727.424,8.1,8.1,0,0,0-2.394,1.212,6.012,6.012,0,0,0-1.7,1.939,5.423,5.423,0,0,0-.637,2.667,6.1,6.1,0,0,0,2.031,4.667Q501.986,94.945,506.108,94.944Z"/><path class="cls-2" d="M547.26,44.942h27.4v.91a37.47,37.47,0,0,1,5.939-2.031,25.641,25.641,0,0,1,6.242-.758,31.637,31.637,0,0,1,12.85,2.607,32.156,32.156,0,0,1,17.121,17.576,33.277,33.277,0,0,1,2.455,12.728,34.2,34.2,0,0,1-2.394,12.788,31.867,31.867,0,0,1-6.7,10.455,31.416,31.416,0,0,1-10.272,7.03,32.609,32.609,0,0,1-13.062,2.576,34.776,34.776,0,0,1-7.454-.758,36.025,36.025,0,0,1-6.667-2.151v13.758h12v16.606h-40.97V119.672h10.3V61.549H547.26ZM585.5,59.792a13.653,13.653,0,0,0-7.151,2,17.07,17.07,0,0,0-5.637,5.636v17.7a15,15,0,0,0,5.273,5.03A14.652,14.652,0,0,0,585.5,92.1a14.925,14.925,0,0,0,5.879-1.182,14.438,14.438,0,0,0,4.849-3.334,16.208,16.208,0,0,0,3.272-5.091,16.59,16.59,0,0,0,1.213-6.394,18.736,18.736,0,0,0-1.182-6.849,14.909,14.909,0,0,0-3.242-5.121,14.144,14.144,0,0,0-4.849-3.212A15.781,15.781,0,0,0,585.5,59.792Z"/></g></g></svg>