<svg xmlns="http://www.w3.org/2000/svg" viewBox="0 0 232.02 126.136"><defs><style>.cls-1{fill:#00e5ff;}.cls-2{fill:#4a90e2;}.cls-3{fill:#1a1a1a;}</style></defs><g id="Capa_2" data-name="Capa 2"><g id="Capa_1-2" data-name="Capa 1"><path class="cls-1" d="M161.066,0l38.856,13.5L163.613,82.427,137.5,72.489Z"/><path class="cls-2" d="M58.7,3.682,99.825,2.556,90.264,79.87l-27.942-.049Z"/></g><g id="Modo_de_aislamiento" data-name="Modo de aislamiento"><path class="cls-3" d="M3.49,35.469H30.684v.9a37.125,37.125,0,0,1,5.9-2.015,25.454,25.454,0,0,1,6.2-.752,31.386,31.386,0,0,1,12.755,2.587,31.919,31.919,0,0,1,17,17.447,33.032,33.032,0,0,1,2.437,12.634,33.943,33.943,0,0,1-2.377,12.7,31.645,31.645,0,0,1-6.648,10.378,31.184,31.184,0,0,1-10.2,6.979,32.394,32.394,0,0,1-12.966,2.557,34.549,34.549,0,0,1-7.4-.752,35.848,35.848,0,0,1-6.618-2.136v13.658H40.67v16.484H0V109.652H10.228v-57.7H3.49ZM41.453,50.21a13.555,13.555,0,0,0-7.1,1.985,16.937,16.937,0,0,0-5.6,5.595V75.358a14.9,14.9,0,0,0,5.235,4.994,14.55,14.55,0,0,0,7.46,1.925A14.8,14.8,0,0,0,47.289,81.1,14.362,14.362,0,0,0,52.1,77.8a16.11,16.11,0,0,0,3.249-5.054,16.508,16.508,0,0,0,1.2-6.347,18.6,18.6,0,0,0-1.173-6.8,14.808,14.808,0,0,0-3.219-5.084,14.062,14.062,0,0,0-4.813-3.189A15.677,15.677,0,0,0,41.453,50.21Z"/><path class="cls-3" d="M130.524,61.942q0-5.235-2.768-8.213a9.546,9.546,0,0,0-7.34-2.978,15.782,15.782,0,0,0-6.317,1.384,16.722,16.722,0,0,0-6.2,5.174V81.315H118.01V97.8H79.264V81.315h9.145V51.954H79.385V35.469h28.4v5.476a31.81,31.81,0,0,1,8.754-4.844,29.422,29.422,0,0,1,10.2-1.775q11.25,0,17.328,6.287t6.076,18.38V81.315h8.844V97.8H130.524Z"/><path class="cls-3" d="M158.981,4.184h27.194V36.853a34.209,34.209,0,0,1,6.678-2.406,29.379,29.379,0,0,1,7.039-.842,31.522,31.522,0,0,1,22.983,9.626,33.255,33.255,0,0,1,9.145,23.042,33.943,33.943,0,0,1-2.377,12.7A31.645,31.645,0,0,1,223,89.346a31.267,31.267,0,0,1-10.167,6.979,32.183,32.183,0,0,1-12.936,2.557,34.921,34.921,0,0,1-7.219-.722,34.019,34.019,0,0,1-6.5-2.046V97.8h-18.47V20.669h-8.724ZM198.629,50.21a14.111,14.111,0,0,0-7.129,1.8,15.423,15.423,0,0,0-5.325,5.175V75.84a14.425,14.425,0,0,0,5.144,4.662,14.627,14.627,0,0,0,7.19,1.775,15.491,15.491,0,0,0,5.835-1.113,14.344,14.344,0,0,0,4.844-3.189,15.129,15.129,0,0,0,3.278-4.993,17.129,17.129,0,0,0,1.2-6.588,17.992,17.992,0,0,0-1.2-6.739,15.524,15.524,0,0,0-3.248-5.114,13.925,13.925,0,0,0-4.783-3.219A15.291,15.291,0,0,0,198.629,50.21Z"/></g></g></svg>